HIERARCHY
ROOT Hips
{
  OFFSET 196.326 95.9168 97.7182
  CHANNELS 6 Xposition Yposition Zposition Zrotation Xrotation Yrotation
  JOINT LeftUpLeg
  {
    OFFSET 8.64259 1.95398 -2.38835
    CHANNELS 3 Zrotation Xrotation Yrotation
    JOINT LeftLeg
    {
      OFFSET 43.7702 0 0
      CHANNELS 3 Zrotation Xrotation Yrotation
      JOINT LeftFoot
      {
        OFFSET 40.6238 0 0
        CHANNELS 3 Zrotation Xrotation Yrotation
        JOINT LeftToeBase
        {
          OFFSET 12.7242 0 0
          CHANNELS 3 Zrotation Xrotation Yrotation
          End Site
          {
            OFFSET 0 0 0
          }
        }
      }
    }
  }
  JOINT RightUpLeg
  {
    OFFSET -8.2249 1.95398 -2.59336
    CHANNELS 3 Zrotation Xrotation Yrotation
    JOINT RightLeg
    {
      OFFSET 43.5653 0 0
      CHANNELS 3 Zrotation Xrotation Yrotation
      JOINT RightFoot
      {
        OFFSET 40.6238 0 0
        CHANNELS 3 Zrotation Xrotation Yrotation
        JOINT RightToeBase
        {
          OFFSET 12.7242 0 0
          CHANNELS 3 Zrotation Xrotation Yrotation
          End Site
          {
            OFFSET 0 0 0
          }
        }
      }
    }
  }
  JOINT Spine
  {
    OFFSET 0.165834 0.87714 6.61349
    CHANNELS 3 Zrotation Xrotation Yrotation
    JOINT Spine1
    {
      OFFSET 7.38963 1.71661e-005 0
      CHANNELS 3 Zrotation Xrotation Yrotation
      JOINT Spine2
      {
        OFFSET 11.9445 1.14441e-005 0
        CHANNELS 3 Zrotation Xrotation Yrotation
        JOINT Spine3
        {
          OFFSET 14.7254 4.19617e-005 0
          CHANNELS 3 Zrotation Xrotation Yrotation
          JOINT Spine4
          {
            OFFSET 10.9679 0 0
            CHANNELS 3 Zrotation Xrotation Yrotation
            JOINT RightShoulder
            {
              OFFSET 2.46616 -1.6653 3.69651
              CHANNELS 3 Zrotation Xrotation Yrotation
              JOINT RightArm
              {
                OFFSET 13.0012 0 0
                CHANNELS 3 Zrotation Xrotation Yrotation
                JOINT RightForeArm
                {
                  OFFSET 28.7848 1.52588e-005 0
                  CHANNELS 3 Zrotation Xrotation Yrotation
                  JOINT RightHand
                  {
                    OFFSET 26.5688 1.52588e-005 0
                    CHANNELS 3 Zrotation Xrotation Yrotation
                    End Site
                    {
                      OFFSET 0 0 0
                    }
                  }
                }
              }
            }
            JOINT LeftShoulder
            {
              OFFSET 2.38034 -1.29275 -3.75231
              CHANNELS 3 Zrotation Xrotation Yrotation
              JOINT LeftArm
              {
                OFFSET 16.3182 6.10351e-005 0
                CHANNELS 3 Zrotation Xrotation Yrotation
                JOINT LeftForeArm
                {
                  OFFSET 27.0901 0 0
                  CHANNELS 3 Zrotation Xrotation Yrotation
                  JOINT LeftHand
                  {
                    OFFSET 24.5451 1.52588e-005 0
                    CHANNELS 3 Zrotation Xrotation Yrotation
                    End Site
                    {
                      OFFSET 0 0 0
                    }
                  }
                }
              }
            }
            JOINT Neck
            {
              OFFSET 5.0226 -0.0266342 0
              CHANNELS 3 Zrotation Xrotation Yrotation
              JOINT Head
              {
                OFFSET 6.69363 2.86102e-005 0
                CHANNELS 3 Zrotation Xrotation Yrotation
                End Site
                {
                  OFFSET 0 0 0
                }
              }
            }
          }
        }
      }
    }
  }
}
MOTION
Frames:	9
Frame Time:	0.0416667
83.037 97.05 -111.084 -4.73339 -85.7782 -3.94831 -167.933 16.5415 95.9532 -16.2226 -8.29469 -2.23172 61.9836 9.90795 20.2152 43.0669 14.9369 -5.76252 173.98 10.1408 89.0725 -21.2594 23.1835 3.45999 72.106 -5.65186 -2.82538 33.6284 0.0196033 13.6733 0.573591 7.25064 -88.8347 12.3524 1.6931 2.13462 0.680904 1.78537 2.05806 -21.8438 0.973516 2.54454 -1.83116 0.973507 2.54454 75.8671 -49.5907 -122.13 31.5282 -3.36219 18.7998 -5.37528 -12.5347 -31.1254 -8.19115 -0.623544 2.99969 -94.5649 -40.5246 68.94 -10.6234 11.3828 -13.6197 34.2977 -28.4306 -122.227 5.58 0.654131 6.31216 -0.0297589 -0.753258 8.97706 9.53761 -3.50894 -10.4724 
83.9707 97.0789 -111.292 -0.359872 -86.1771 0.753139 -166.864 16.1183 96.6212 -15.5554 -9.54128 -3.14281 59.2126 6.19157 17.6292 40.5949 12.1781 -8.79321 173.874 9.43357 88.7283 -20.6214 23.783 3.54497 72.0319 -5.46927 -2.74716 32.5225 -0.137308 12.2477 0.496579 7.24428 -88.8938 12.3678 1.51211 2.03691 0.696213 1.60027 1.9684 -21.8288 0.830229 2.397 -1.81618 0.830231 2.39701 75.9214 -49.5041 -122.091 31.6368 -2.60715 19.527 -5.61402 -11.8645 -31.3212 -7.60011 -0.578688 2.87182 -94.4484 -40.2934 69.0498 -11.2744 10.6189 -13.1759 32.8937 -27.7547 -123.063 4.79414 0.543486 5.73739 0.310362 -0.479723 9.17059 8.9259 -3.26949 -10.7277 
85.0098 97.0101 -111.577 -2.2628 -86.6852 -0.65559 -166.415 16.0301 97.0641 -15.7279 -8.772 -3.57946 57.3551 3.72367 16.0859 40.967 12.1737 -12.2521 173.98 8.75657 88.6549 -19.8764 23.9284 3.27357 72.1566 -5.59464 -2.80045 31.8481 -0.213825 11.1312 0.471689 7.24951 -88.9647 12.3593 1.42901 1.90505 0.687849 1.51145 1.84032 -21.8385 0.790558 2.24629 -1.82588 0.790565 2.24629 76.2658 -49.799 -121.454 31.0508 -2.54755 19.6669 -5.46712 -12.1365 -30.9024 -7.43973 -0.557654 2.63563 -94.4211 -40.3459 69.1131 -11.4881 9.98908 -12.8941 31.6186 -27.2306 -123.771 5.13909 0.507956 4.73281 0.719272 -0.333918 8.67663 8.37375 -2.9258 -9.93401 
85.9787 96.946 -111.75 7.81661 -86.8749 9.533 -165.99 16.4582 96.7779 -16.8289 -8.15018 -4.02446 57.7681 4.08031 15.6544 42.0169 12.8682 -14.3049 173.641 9.02381 88.0961 -20.5042 24.4197 3.30078 71.6089 -5.40753 -2.72653 33.2328 -0.0148776 12.142 0.384487 7.24912 -89.0113 12.3623 1.2336 1.83417 0.690725 1.31311 1.77812 -21.8356 0.625462 2.11999 -1.82297 0.625465 2.12 76.9339 -49.8936 -120.439 30.3861 -2.90979 19.4637 -4.52011 -11.7042 -29.849 -6.79527 -0.517089 2.62243 -94.6894 -40.6265 68.772 -11.5759 9.47152 -12.7987 30.4359 -26.6689 -124.305 4.4601 0.402711 3.86415 1.14941 -0.248278 8.30249 8.11608 -2.71782 -9.36332 
86.8278 96.8406 -111.898 14.6937 -86.6947 16.4932 -165.497 17.2903 96.5722 -18.1962 -6.26478 -4.55797 58.0702 4.62066 16.0064 43.7526 14.31 -14.6041 173.164 9.69805 87.6243 -21.6089 23.3676 3.46903 72.7312 -5.61128 -2.7803 32.2201 -0.154909 11.1855 0.353801 7.24151 -89.0554 12.3788 1.15172 1.75509 0.70728 1.22785 1.70271 -21.8197 0.571132 2.01999 -1.80705 0.571135 2.01999 76.317 -49.6205 -121.461 30.8391 -1.30709 20.6135 -5.21319 -10.4981 -30.2814 -6.2661 -0.491755 2.87148 -95.5353 -41.2643 67.627 -11.1636 8.93119 -12.7111 30.0362 -26.3694 -124.482 4.69065 0.415793 3.82037 1.43565 -0.492839 8.29005 8.45727 -3.03843 -9.59297 
87.509 96.7735 -112.119 18.2357 -87.0684 19.9366 -165.332 17.6225 96.4156 -19.6915 -3.54902 -4.74022 57.6482 4.04869 15.3591 47.2379 17.0021 -16.0112 173.343 9.85879 87.3586 -22.2063 23.0744 2.93518 73.3287 -5.76542 -2.82864 31.7699 -0.244523 11.659 0.393613 7.27719 -89.0651 12.3072 1.22574 1.72815 0.635739 1.30061 1.67254 -21.8919 0.649814 2.01653 -1.87922 0.649812 2.01654 76.3129 -49.7357 -121.415 30.5042 -1.03468 21.045 -3.70684 -8.0397 -30.2505 -6.25255 -0.458354 2.56012 -96.372 -41.7533 66.4622 -10.8891 8.56432 -12.5457 30.472 -26.381 -124.283 4.34546 0.439503 4.56652 1.37744 -0.912392 7.71437 8.71585 -3.30193 -8.99251 
88.1785 96.7488 -112.322 19.919 -87.2974 21.6564 -165.895 18.1332 96.2274 -21.2349 1.82732 -4.28737 55.7989 2.8232 15.7773 55.99 23.1558 -19.5103 173.711 10.009 87.295 -22.3802 23.3472 2.43738 73.4324 -5.62427 -2.75591 31.0516 -0.377103 11.967 0.432167 7.30163 -89.0579 12.2578 1.30548 1.73424 0.58646 1.38054 1.67512 -21.9415 0.724037 2.0463 -1.92881 0.724038 2.04629 76.3046 -49.908 -121.349 30.5482 -1.05789 21.2222 -4.61587 -9.7981 -29.8314 -6.64052 -0.517437 3.02967 -96.5451 -41.7214 66.1736 -11.2529 9.21884 -12.808 31.8756 -26.874 -123.345 5.14866 0.523908 4.87009 1.62992 -1.15657 7.09524 8.62973 -3.4305 -8.79691 
88.7865 96.6206 -112.423 21.213 -87.3716 22.9185 -167.191 18.3444 95.8988 -22.4242 9.17937 -3.44994 54.0733 1.75531 16.1536 64.0471 29.8601 -18.3097 173.972 10.3157 87.0756 -22.8302 23.2827 2.05286 73.8468 -5.39723 -2.63716 30.4003 -0.522432 12.7114 0.458004 7.32337 -89.0077 12.2127 1.38032 1.82655 0.541325 1.45937 1.76405 -21.9858 0.7677 2.15682 -1.97316 0.767693 2.15681 76.3535 -50.3598 -121.074 30.3511 -1.72602 20.7657 -3.76549 -9.56086 -29.1043 -6.44239 -0.494682 2.87729 -96.0996 -41.6083 66.8449 -11.55 9.48363 -13.2934 30.7815 -26.255 -123.582 4.63795 0.497064 5.24417 2.47845 -1.41717 5.77934 7.88754 -3.37394 -8.07629 
89.4061 96.5042 -112.578 26.2048 -87.6462 27.9967 -169.049 18.0808 95.7079 -23.3983 16.5014 -2.46003 53.6292 2.13518 17.8837 67.0955 33.7727 -14.9083 174.274 10.2856 86.9889 -23.1871 23.4966 1.61668 74.334 -5.28379 -2.57044 29.0747 -0.769721 12.9694 0.507173 7.37096 -89.0278 12.1175 1.46783 1.77794 0.446273 1.54464 1.71163 -22.082 0.865763 2.13675 -2.06931 0.865757 2.13674 76.5285 -50.4823 -120.766 30.4543 -2.32016 20.7039 -4.93076 -11.5616 -28.5368 -6.98856 -0.598947 4.02135 -96.3355 -41.9323 66.5873 -11.8707 10.8688 -13.5021 35.1002 -27.9661 -121.645 6.44365 0.98118 9.46528 2.79463 -1.76547 5.23058 8.06742 -3.55873 -7.33005 
